<?xml version="1.0" encoding="utf-8"?>
<!-- Generator: Adobe Illustrator 21.0.0, SVG Export Plug-In . SVG Version: 6.00 Build 0)  -->
<svg version="1.1" id="Capa_1" xmlns="http://www.w3.org/2000/svg" xmlns:xlink="http://www.w3.org/1999/xlink" x="0px" y="0px"
	 viewBox="0 0 612 343.5" style="enable-background:new 0 0 612 343.5;" xml:space="preserve">
<g>
	<g>
		<path d="M226.8,241c-28.2,0-51.1,22.9-51.1,51.2c0,28.2,22.8,51.1,51.1,51.1s51.1-22.9,51.1-51.1C277.8,263.9,255,241,226.8,241z
			 M226.8,317.7c-14.1,0-25.5-11.5-25.5-25.5c0-14.1,11.4-25.5,25.5-25.5c14.1,0,25.5,11.4,25.5,25.5
			C252.3,306.2,240.9,317.7,226.8,317.7z M612,203.2v54.5c0,13.6-11,24.6-24.6,24.6H561c-4.8-32.7-32.9-57.8-66.9-57.8
			c-33.9,0-62.1,25.1-66.8,57.8H293.6c-4.8-32.7-32.9-57.8-66.8-57.8s-62.1,25.1-66.8,57.8h-33c-13.6,0-24.6-11-24.6-24.6v-54.5
			L612,203.2L612,203.2z M494.1,241c-28.2,0-51.2,22.9-51.2,51.2c0,28.2,22.9,51.1,51.2,51.1c28.2,0,51.1-22.9,51.1-51.1
			C545.2,263.9,522.3,241,494.1,241z M494.1,317.7c-14.1,0-25.5-11.5-25.5-25.5c0-14.1,11.4-25.5,25.5-25.5
			c14,0,25.5,11.4,25.5,25.5C519.7,306.2,508.2,317.7,494.1,317.7z M602.3,148.3l-96.8-95.8c-6.2-6.1-14.5-9.5-23.1-9.5h-48.9V24.7
			c0-13.6-11-24.6-24.6-24.6h-282c-13.6,0-24.6,11-24.6,24.6v3.9L2.3,40.1l177.1,23.1L0,81l178.8,25.4L0,121.9l102.3,19.3l0,48.4
			H612v-18C612,162.8,608.5,154.5,602.3,148.3z M560.1,151.5h-93.7c-2.1,0-3.9-1.7-3.9-3.9V75.3c0-2.1,1.7-3.9,3.9-3.9h17.8
			c1,0,2,0.4,2.7,1.1l75.8,72.3C565.3,147.2,563.5,151.5,560.1,151.5z"/>
	</g>
</g>
</svg>
