<?xml version="1.0" encoding="utf-8"?>
<!-- Generator: Adobe Illustrator 21.0.0, SVG Export Plug-In . SVG Version: 6.00 Build 0)  -->
<svg version="1.1" id="Слой_1" xmlns="http://www.w3.org/2000/svg" xmlns:xlink="http://www.w3.org/1999/xlink" x="0px" y="0px"
	 viewBox="0 0 187 54.2" style="enable-background:new 0 0 187 54.2;" xml:space="preserve">
<style type="text/css">
	.st0{clip-path:url(#SVGID_2_);}
	.st1{fill:#FFCE56;}
	.st2{fill:#4C241D;}
	.st3{fill:#EAEAEA;}
	.st4{fill:#9DC1E4;}
	.st5{fill:#E66353;}
</style>
<g>
	<defs>
		
			<rect id="SVGID_1_" x="-11.3" y="-4.4" transform="matrix(0.943 -0.3328 0.3328 0.943 -7.4101 7.2915)" width="57.8" height="59.3"/>
	</defs>
	<clipPath id="SVGID_2_">
		<use xlink:href="#SVGID_1_"  style="overflow:visible;"/>
	</clipPath>
	<g class="st0">
		<path class="st1" d="M21.6,9.3l2.9-1l1.6,4.5l1.7-9l-2.9,1l-1.3-3.7L21.6,9.3z"/>
		<path class="st2" d="M26.4,13.5c-0.1,0-0.1,0-0.2,0c-0.3,0-0.7-0.2-0.8-0.5l-1.3-3.7L21.9,10c-0.3,0.1-0.6,0-0.8-0.2
			c-0.2-0.2-0.3-0.5-0.2-0.8l2-8.2c0.1-0.3,0.4-0.6,0.7-0.6c0.3,0,0.7,0.2,0.8,0.5l1.1,3L27.6,3c0.3-0.1,0.6,0,0.8,0.2
			c0.2,0.2,0.3,0.5,0.3,0.8l-1.7,9C26.8,13.2,26.6,13.4,26.4,13.5z M22.7,8.1l1.5-0.5c0.4-0.1,0.8,0.1,1,0.5l0.6,1.8L26.8,5
			l-1.6,0.6c-0.4,0.1-0.8-0.1-1-0.5l-0.4-1.3L22.7,8.1z"/>
		<path class="st2" d="M32.1,48.3l-8,2.8c-0.4,0.1-0.8-0.1-1-0.5c-0.1-0.4,0.1-0.9,0.5-1l8-2.8c0.4-0.1,0.8,0.1,1,0.5
			C32.7,47.7,32.5,48.2,32.1,48.3z"/>
		<path class="st2" d="M37.9,46.3l-2.9,1c-0.4,0.1-0.8-0.1-1-0.5c-0.1-0.4,0.1-0.9,0.5-1l2.9-1c0.4-0.1,0.8,0.1,1,0.5
			C38.6,45.7,38.3,46.1,37.9,46.3z"/>
		<path class="st3" d="M14.6,12.6l-0.8-2.2L1.5,14.7L2.3,17l-1.1,3.7l10.5,29.8l3.5,3l12.3-4.4l0.9-4.5L17.9,14.8L14.6,12.6z"/>
		<path class="st2" d="M27.8,49.9l-12.3,4.4c-0.3,0.1-0.5,0-0.8-0.1l-3.5-3c-0.1-0.1-0.2-0.2-0.2-0.3L0.4,21c-0.1-0.2-0.1-0.3,0-0.5
			L1.5,17l-0.7-2c-0.1-0.4,0.1-0.9,0.5-1l12.3-4.4c0.4-0.1,0.8,0.1,1,0.5l0.7,2l3,2.1c0.1,0.1,0.2,0.2,0.3,0.4l10.5,29.8
			c0,0.1,0.1,0.3,0,0.4l-0.9,4.5C28.2,49.6,28,49.8,27.8,49.9z M15.3,52.6l11.5-4.1l0.7-3.8L17.2,15.3l-3-2.1
			c-0.1-0.1-0.2-0.2-0.3-0.4l-0.5-1.5L2.5,15.2L3,16.7c0.1,0.2,0.1,0.3,0,0.5L2,20.7l10.4,29.4L15.3,52.6z"/>
		<path class="st4" d="M1.5,14.7L2.3,17l-1.1,3.7l5.3,14.9l8.2-2.9l-4-21.2L1.5,14.7z"/>
		<path class="st2" d="M14.8,33.5l-8.2,2.9c-0.4,0.1-0.8-0.1-1-0.5L0.4,21c-0.1-0.2-0.1-0.3,0-0.5L1.5,17l-0.7-2
			c-0.1-0.4,0.1-0.9,0.5-1l9-3.2c0.2-0.1,0.4-0.1,0.6,0.1c0.2,0.1,0.3,0.3,0.4,0.5l4,21.2C15.4,33,15.2,33.4,14.8,33.5z M6.9,34.6
			l6.8-2.4L9.9,12.6l-7.5,2.6L3,16.7c0.1,0.2,0.1,0.3,0,0.5L2,20.7L6.9,34.6z M2.3,17L2.3,17L2.3,17z"/>
		<path class="st4" d="M14.6,32.7l3.7,19.6l9.2-3.2l0.9-4.5l-5.3-14.9L14.6,32.7z"/>
		<path class="st2" d="M27.8,49.9l-9.2,3.2c-0.2,0.1-0.4,0.1-0.6-0.1c-0.2-0.1-0.3-0.3-0.4-0.5l-3.7-19.6c-0.1-0.4,0.1-0.8,0.5-0.9
			l8.5-3c0.4-0.1,0.8,0.1,1,0.5l5.3,14.9c0,0.1,0.1,0.3,0,0.4l-0.9,4.5C28.2,49.6,28,49.8,27.8,49.9z M18.9,51.3l7.9-2.8l0.7-3.8
			l-4.9-14l-7.2,2.5L18.9,51.3z"/>
		<path class="st1" d="M16.1,36.4c1.8-0.6,2.7-2.7,2.1-4.5c-0.7-1.9-2.6-2.8-4.5-2.2c-1.8,0.6-2.7,2.7-2.1,4.5
			C12.3,36.1,14.3,37,16.1,36.4z"/>
		<path class="st2" d="M16.3,37.1c-2.2,0.8-4.6-0.4-5.4-2.7c-0.8-2.3,0.3-4.7,2.5-5.5c2.2-0.8,4.6,0.4,5.4,2.7
			C19.7,33.9,18.5,36.4,16.3,37.1z M14,30.4c-1.4,0.5-2.1,2.1-1.6,3.5c0.5,1.4,2.1,2.2,3.5,1.7c1.4-0.5,2.1-2.1,1.6-3.5
			C16.9,30.7,15.4,29.9,14,30.4z"/>
		<path class="st5" d="M17.9,26.5l-9.4,3.3c-0.4,0.1-0.8-0.1-1-0.5c-0.1-0.4,0.1-0.9,0.5-1l9.4-3.3c0.4-0.1,0.8,0.1,1,0.5
			C18.5,25.9,18.3,26.4,17.9,26.5z"/>
		<path class="st5" d="M21.9,37.7L12.4,41c-0.4,0.1-0.8-0.1-1-0.5c-0.1-0.4,0.1-0.9,0.5-1l9.4-3.3c0.4-0.1,0.8,0.1,1,0.5
			C22.5,37.1,22.3,37.6,21.9,37.7z"/>
	</g>
</g>
<path class="st4" d="M38.9,25.3c1.3,0,2.5,0.2,3.5,0.7c1,0.4,1.8,1.1,2.3,1.9s0.8,1.8,0.8,2.9c0,1.1-0.3,2.1-0.8,2.9
	c-0.5,0.8-1.3,1.5-2.3,1.9c-1,0.4-2.1,0.7-3.5,0.7h-3.5v4.4h-2.9V25.3H38.9z M38.8,33.9c1.2,0,2.2-0.3,2.8-0.8c0.6-0.5,1-1.3,1-2.3
	s-0.3-1.7-1-2.3c-0.6-0.5-1.6-0.8-2.8-0.8h-3.3v6.1H38.8z M50.5,30.7c0.8-1.2,2.2-1.8,4.2-1.8v2.6c-0.2,0-0.4-0.1-0.6-0.1
	c-1.1,0-1.9,0.3-2.5,0.9C51,33,50.7,33.9,50.7,35v5.7h-2.8V29h2.6V30.7z M68,34.9c0,0.2,0,0.5,0,0.8h-9.2c0.2,0.9,0.6,1.6,1.3,2.1
	c0.7,0.5,1.5,0.7,2.6,0.7c1.3,0,2.4-0.4,3.2-1.3l1.5,1.7c-0.5,0.6-1.2,1.1-2,1.4c-0.8,0.3-1.7,0.5-2.7,0.5c-1.3,0-2.4-0.3-3.4-0.8
	c-1-0.5-1.7-1.2-2.3-2.1C56.2,37,56,36,56,34.8c0-1.1,0.3-2.2,0.8-3.1c0.5-0.9,1.3-1.6,2.2-2.2c0.9-0.5,2-0.8,3.1-0.8
	c1.1,0,2.2,0.3,3.1,0.8c0.9,0.5,1.6,1.2,2.1,2.1C67.7,32.7,68,33.7,68,34.9z M62.1,31c-0.9,0-1.6,0.3-2.2,0.8
	c-0.6,0.5-1,1.2-1.1,2.1h6.7c-0.1-0.9-0.5-1.5-1.1-2.1C63.7,31.3,62.9,31,62.1,31z M77.7,40.1c-0.3,0.3-0.7,0.5-1.2,0.6
	c-0.5,0.1-0.9,0.2-1.5,0.2c-1.3,0-2.3-0.3-3-1c-0.7-0.7-1.1-1.7-1.1-2.9v-5.7h-1.9v-2.2H71v-2.7h2.8v2.7h3.1v2.2h-3.1v5.6
	c0,0.6,0.1,1,0.4,1.3c0.3,0.3,0.7,0.4,1.2,0.4c0.6,0,1.1-0.2,1.5-0.5L77.7,40.1z M86.7,40.1c-0.3,0.3-0.7,0.5-1.2,0.6
	c-0.5,0.1-0.9,0.2-1.5,0.2c-1.3,0-2.3-0.3-3-1c-0.7-0.7-1.1-1.7-1.1-2.9v-5.7h-1.9v-2.2h1.9v-2.7h2.8v2.7H86v2.2h-3.1v5.6
	c0,0.6,0.1,1,0.4,1.3c0.3,0.3,0.7,0.4,1.2,0.4c0.6,0,1.1-0.2,1.5-0.5L86.7,40.1z M99.8,29l-5.5,12.7c-0.5,1.3-1.1,2.2-1.9,2.7
	c-0.7,0.5-1.6,0.8-2.7,0.8c-0.6,0-1.2-0.1-1.7-0.3c-0.6-0.2-1-0.5-1.4-0.8l1.1-2c0.3,0.2,0.6,0.4,0.9,0.6c0.4,0.1,0.7,0.2,1.1,0.2
	c0.5,0,0.9-0.1,1.2-0.4c0.3-0.2,0.6-0.7,0.9-1.3l0.2-0.5L86.9,29h2.9l3.7,8.7l3.7-8.7H99.8z M119.4,38.3v2.4h-11.6V25.3h11.2v2.4
	h-8.4v4h7.4v2.4h-7.4v4.2H119.4z M129,28.8c1.5,0,2.7,0.4,3.6,1.3s1.3,2.1,1.3,3.9v6.7h-2.8v-6.4c0-1-0.2-1.8-0.7-2.3
	c-0.5-0.5-1.2-0.8-2.1-0.8c-1,0-1.8,0.3-2.4,0.9c-0.6,0.6-0.9,1.5-0.9,2.6v5.9h-2.8V29h2.6v1.5c0.5-0.5,1-1,1.7-1.2
	C127.4,29,128.1,28.8,129,28.8z M148.5,34.9c0,0.2,0,0.5,0,0.8h-9.2c0.2,0.9,0.6,1.6,1.3,2.1c0.7,0.5,1.5,0.7,2.6,0.7
	c1.3,0,2.4-0.4,3.2-1.3l1.5,1.7c-0.5,0.6-1.2,1.1-2,1.4c-0.8,0.3-1.7,0.5-2.7,0.5c-1.3,0-2.4-0.3-3.4-0.8c-1-0.5-1.7-1.2-2.3-2.1
	c-0.5-0.9-0.8-2-0.8-3.1c0-1.1,0.3-2.2,0.8-3.1c0.5-0.9,1.3-1.6,2.2-2.2c0.9-0.5,2-0.8,3.1-0.8c1.1,0,2.2,0.3,3.1,0.8
	c0.9,0.5,1.6,1.2,2.1,2.1C148.3,32.7,148.5,33.7,148.5,34.9z M142.6,31c-0.9,0-1.6,0.3-2.2,0.8c-0.6,0.5-1,1.2-1.1,2.1h6.7
	c-0.1-0.9-0.5-1.5-1.1-2.1C144.2,31.3,143.5,31,142.6,31z M162.8,29v10c0,4.1-2.1,6.2-6.3,6.2c-1.1,0-2.2-0.1-3.2-0.4
	c-1-0.3-1.8-0.7-2.5-1.2l1.2-2.1c0.5,0.4,1.2,0.8,1.9,1c0.8,0.3,1.6,0.4,2.4,0.4c1.3,0,2.2-0.3,2.8-0.9c0.6-0.6,0.9-1.5,0.9-2.7
	v-0.6c-0.5,0.5-1,0.9-1.7,1.2c-0.7,0.3-1.4,0.4-2.2,0.4c-1.1,0-2.1-0.2-3-0.7c-0.9-0.5-1.6-1.2-2.1-2c-0.5-0.9-0.8-1.9-0.8-3
	c0-1.1,0.3-2.1,0.8-2.9c0.5-0.9,1.2-1.5,2.1-2c0.9-0.5,1.9-0.7,3-0.7c0.8,0,1.6,0.1,2.3,0.4c0.7,0.3,1.3,0.7,1.8,1.3V29H162.8z
	 M156.6,37.9c1,0,1.9-0.3,2.6-0.9c0.7-0.6,1-1.4,1-2.4c0-1-0.3-1.8-1-2.4c-0.7-0.6-1.5-0.9-2.6-0.9c-1.1,0-1.9,0.3-2.6,0.9
	c-0.7,0.6-1,1.4-1,2.4c0,1,0.3,1.8,1,2.4C154.6,37.6,155.5,37.9,156.6,37.9z M169.1,30.7c0.8-1.2,2.2-1.8,4.2-1.8v2.6
	c-0.2,0-0.4-0.1-0.6-0.1c-1.1,0-1.9,0.3-2.5,0.9c-0.6,0.6-0.9,1.5-0.9,2.7v5.7h-2.8V29h2.6V30.7z M187,29l-5.5,12.7
	c-0.5,1.3-1.1,2.2-1.9,2.7c-0.7,0.5-1.6,0.8-2.7,0.8c-0.6,0-1.2-0.1-1.7-0.3c-0.6-0.2-1-0.5-1.4-0.8l1.1-2c0.3,0.2,0.6,0.4,0.9,0.6
	c0.4,0.1,0.7,0.2,1.1,0.2c0.5,0,0.9-0.1,1.2-0.4c0.3-0.2,0.6-0.7,0.9-1.3l0.2-0.5L174.1,29h2.9l3.7,8.7l3.7-8.7H187z"/>
</svg>
