<svg width="15" height="16" viewBox="0 0 15 16" fill="none" xmlns="http://www.w3.org/2000/svg">
<path d="M1.61189 3.04404C1.6949 2.98912 1.76901 2.91671 1.86338 2.87928C2.41479 2.65426 3.04178 2.63384 3.62579 2.4997C4.37335 2.33008 5.82695 5.71033 4.89757 6.00388C4.55221 6.11032 3.46274 6.27119 3.17519 6.48455C2.91875 6.67459 3.04079 7.14068 3.29377 7.43375C3.96078 8.20505 4.94007 9.06433 5.71529 9.81766L5.71628 9.81717C5.73604 9.8371 5.75877 9.85994 5.78001 9.88084C5.80126 9.90174 5.82399 9.92312 5.84523 9.94354H5.84425C6.60959 10.7056 7.48264 11.6704 8.26725 12.326C8.56568 12.5753 9.03901 12.6944 9.2322 12.4421C9.44861 12.1598 9.61265 11.0876 9.72036 10.7479C10.0188 9.8337 13.4562 11.264 13.2832 11.9999C13.1464 12.5739 13.1256 13.1896 12.8973 13.733C12.8583 13.8249 12.7842 13.8978 12.7294 13.9814C11.4843 15.9113 8.46587 16.1597 6.21728 14.2769C5.35856 13.558 4.52404 12.8096 3.71275 12.0392L3.70831 12.0431C3.68706 12.0217 3.66779 11.9994 3.64556 11.9785C3.6253 11.9576 3.60208 11.9377 3.57984 11.9168L3.5838 11.9124C2.80017 11.1139 2.04076 10.2944 1.30902 9.44877C-0.603595 7.23788 -0.350128 4.26832 1.61189 3.04404ZM7.52266 2.77528L6.97274 8.17249C6.94013 8.49958 7.1852 8.74064 7.51723 8.70808L13.0046 8.16763C13.3376 8.13604 13.4156 7.9183 13.1795 7.68599L11.6913 6.22259L14.7912 3.17235C15.0278 2.93955 15.0278 2.55997 14.7912 2.32717L13.4295 0.986249C13.1928 0.753933 12.8054 0.753933 12.5703 0.986249L9.46986 4.03649L8.0128 2.60323C7.77563 2.37042 7.55527 2.44819 7.52266 2.77528Z" fill="#1AC92B"/>
</svg>
