<?xml version="1.0" encoding="iso-8859-1"?>
<!-- Generator: Adobe Illustrator 19.0.0, SVG Export Plug-In . SVG Version: 6.00 Build 0)  -->
<svg version="1.1" id="Capa_1" xmlns="http://www.w3.org/2000/svg" xmlns:xlink="http://www.w3.org/1999/xlink" x="0px" y="0px"
	 viewBox="0 0 512 512" style="enable-background:new 0 0 512 512;" xml:space="preserve">
<g>
	<g>
		<path d="M478.854,119.891c10.601,0,19.225-8.624,19.225-19.224V19.224c0-10.6-8.624-19.224-19.225-19.224H33.146
			c-10.6,0-19.224,8.624-19.224,19.224v81.442c0,10.6,8.624,19.224,19.225,19.224H34.5v149.683h-1.354
			c-10.601,0-19.225,8.624-19.225,19.224v7.924c0,10.6,8.624,19.224,19.225,19.224H34.5v149.683h-1.354
			c-10.601,0-19.225,8.624-19.225,19.224v7.924c0,10.6,8.624,19.224,19.225,19.224h445.707c10.601,0,19.225-8.624,19.225-19.224
			v-7.924c0-10.6-8.624-19.224-19.225-19.224H477.5V315.945h1.354c10.601,0,19.225-8.624,19.225-19.224v-7.924
			c0-10.6-8.624-19.224-19.225-19.224H477.5V119.891H478.854z M33.146,104.891c-2.329,0-4.224-1.895-4.224-4.224V19.224
			c0-2.329,1.896-4.224,4.225-4.224h278.958c-10.505,10.042-14.67,21.851-18.26,32.06c-3.48,9.895-6.485,18.44-14.369,24.055
			c-11.374,8.102-39.853,15.176-64.979,21.418c-16.83,4.181-32.749,8.14-43.79,12.358H33.146z M478.853,480.628
			c2.33,0,4.225,1.895,4.225,4.224v7.924c0,2.329-1.896,4.224-4.225,4.224H33.146c-2.329,0-4.225-1.895-4.225-4.224v-7.924
			c0-2.329,1.896-4.224,4.225-4.224H478.853z M161.681,377.987c4.803,0,8.71,3.907,8.71,8.71v78.931h-51.997v-78.931
			c0-4.803,3.907-8.71,8.71-8.71H161.681z M140.115,362.987v-13.699h8.554v13.699H140.115z M273.289,377.987
			c4.803,0,8.71,3.907,8.71,8.71v78.931h-51.998v-78.931c0-4.803,3.907-8.71,8.71-8.71H273.289z M251.722,362.987v-13.699h8.555
			v13.699H251.722z M384.896,377.987c4.803,0,8.71,3.907,8.71,8.71v78.931h-51.997v-78.931c0-4.803,3.908-8.71,8.71-8.71H384.896z
			 M363.331,362.987v-13.699h8.554v13.699H363.331z M332.625,119.891H462.5v149.682h-15.875c-4.143,0-7.5,3.358-7.5,7.5
			c0,4.142,3.357,7.5,7.5,7.5h32.229c2.329,0,4.225,1.895,4.225,4.224v7.924c0,2.329-1.896,4.224-4.225,4.224H114.625
			c-4.143,0-7.5,3.358-7.5,7.5c0,4.142,3.357,7.5,7.5,7.5H462.5v149.683h-53.894v-78.931c0-12.404-9.576-22.606-21.722-23.62V346.88
			c0-6.943-5.648-12.591-12.591-12.591h-13.372c-6.942,0-12.591,5.648-12.591,12.591v16.197
			c-12.146,1.014-21.722,11.217-21.722,23.62v78.931h-29.61v-78.931c0-12.404-9.576-22.606-21.722-23.62V346.88
			c0-6.943-5.648-12.591-12.592-12.591h-13.371c-6.943,0-12.592,5.648-12.592,12.591v16.197
			c-12.146,1.014-21.722,11.217-21.722,23.62v78.931h-29.61v-78.931c0-12.404-9.576-22.606-21.722-23.62V346.88
			c0-6.943-5.648-12.591-12.591-12.591h-13.372c-6.942,0-12.591,5.648-12.591,12.591v16.197
			c-12.146,1.014-21.722,11.217-21.722,23.62v78.931H49.5V315.945h33.875c4.143,0,7.5-3.358,7.5-7.5c0-4.142-3.357-7.5-7.5-7.5
			H33.146c-2.329,0-4.225-1.895-4.225-4.224v-7.924c0-2.329,1.896-4.224,4.225-4.224h382.229c4.143,0,7.5-3.358,7.5-7.5
			c0-4.142-3.357-7.5-7.5-7.5h-6.769v-79.4c0-12.403-9.576-22.606-21.722-23.62v-16.198c0-6.943-5.648-12.591-12.591-12.591h-13.372
			c-6.942,0-12.591,5.648-12.591,12.591v16.198c-12.146,1.014-21.722,11.217-21.722,23.62v79.4h-29.61v-79.4
			c0-12.403-9.576-22.606-21.722-23.62v-16.198c0-6.943-5.648-12.591-12.592-12.591h-13.371c-6.943,0-12.592,5.648-12.592,12.591
			v16.198c-12.146,1.014-21.722,11.217-21.722,23.62v79.4h-29.61v-79.4c0-12.403-9.576-22.606-21.722-23.62v-16.198
			c0-6.943-5.648-12.591-12.591-12.591h-13.372c-6.942,0-12.591,5.648-12.591,12.591v16.198
			c-12.146,1.014-21.722,11.217-21.722,23.62v79.4H49.5V119.891h251.875c4.143,0,7.5-3.358,7.5-7.5c0-4.142-3.357-7.5-7.5-7.5
			h-74.441c24.796-6.224,49-12.837,61.244-21.558c11.754-8.373,15.853-20.026,19.816-31.296
			c5.149-14.642,10.031-28.482,32.488-37.036h138.372c2.329,0,4.225,1.895,4.225,4.224v81.442c0,2.329-1.896,4.224-4.225,4.224
			H332.625c-4.143,0-7.5,3.358-7.5,7.5C325.125,116.533,328.482,119.891,332.625,119.891z M161.681,181.464
			c4.803,0,8.71,3.907,8.71,8.709v79.4h-51.997v-79.4c0-4.802,3.907-8.709,8.71-8.709H161.681z M140.115,166.464v-13.699h8.554
			v13.699H140.115z M273.289,181.464c4.803,0,8.71,3.907,8.71,8.709v79.4h-51.998v-79.4c0-4.802,3.907-8.709,8.71-8.709H273.289z
			 M251.722,166.464v-13.699h8.555v13.699H251.722z M384.896,181.464c4.803,0,8.71,3.907,8.71,8.709v79.4h-51.997v-79.4
			c0-4.802,3.908-8.709,8.71-8.709H384.896z M363.331,166.464v-13.699h8.554v13.699H363.331z"/>
	</g>
</g>
<g>
	<g>
		<path d="M451.152,56.502h-38.901c-4.143,0-7.5,3.358-7.5,7.5c0,4.142,3.357,7.5,7.5,7.5h38.901c4.143,0,7.5-3.358,7.5-7.5
			C458.652,59.86,455.295,56.502,451.152,56.502z"/>
	</g>
</g>
<g>
	<g>
		<path d="M451.152,80.816h-86.379c-4.143,0-7.5,3.358-7.5,7.5c0,4.142,3.358,7.5,7.5,7.5h86.379c4.143,0,7.5-3.358,7.5-7.5
			C458.652,84.174,455.295,80.816,451.152,80.816z"/>
	</g>
</g>
<g>
	<g>
		<path d="M225.412,52.445H69.981c-4.143,0-7.5,3.358-7.5,7.5c0,4.142,3.358,7.5,7.5,7.5h155.431c4.143,0,7.5-3.358,7.5-7.5
			C232.912,55.803,229.555,52.445,225.412,52.445z"/>
	</g>
</g>
<g>
</g>
<g>
</g>
<g>
</g>
<g>
</g>
<g>
</g>
<g>
</g>
<g>
</g>
<g>
</g>
<g>
</g>
<g>
</g>
<g>
</g>
<g>
</g>
<g>
</g>
<g>
</g>
<g>
</g>
</svg>
