<svg width="47" height="47" viewBox="0 0 47 47" fill="none" xmlns="http://www.w3.org/2000/svg">
<path d="M47 23.5C47 36.4787 36.4787 47 23.5 47C10.5213 47 0 36.4787 0 23.5C0 10.5213 10.5213 0 23.5 0C36.4787 0 47 10.5213 47 23.5Z" fill="#FA4631"/>
<g clip-path="url(#clip0)">
<path fill-rule="evenodd" clip-rule="evenodd" d="M30.1791 11H22.2166C18.1824 11 14.8131 14.032 14.8131 17.2611C14.7646 18.0701 14.8877 18.8802 15.1743 19.638C15.4609 20.3958 15.9044 21.0839 16.4756 21.657C17.0468 22.2301 17.7326 22.6751 18.4878 22.9627C19.243 23.2502 20.0504 23.3737 20.8567 23.3251H21.6273C21.3688 23.7898 21.2238 24.3093 21.2043 24.8411C21.2315 25.2507 21.3486 25.6493 21.5471 26.0083C21.7456 26.3673 22.0206 26.678 22.3525 26.918H20.8416C16.2334 26.8725 13 30.0561 13 33.1185C13 36.1808 16.8982 38.0152 21.5367 38.0152C26.8097 38.0152 30.0582 34.9832 30.0582 31.9512C30.0582 29.5407 29.5445 28.3279 27.0364 26.4026C26.296 25.8417 24.6945 24.7047 24.6945 23.9467C24.6945 23.1887 24.8607 22.6732 26.2054 21.612C26.9 21.1369 27.4746 20.5059 27.8838 19.7691C28.2929 19.0322 28.5253 18.2099 28.5624 17.3672C28.6226 16.4753 28.4443 15.5834 28.0459 14.7838C27.6474 13.9843 27.0433 13.306 26.296 12.8192H28.3811L30.1791 11ZM27.4745 31.4812C27.5437 31.764 27.5792 32.0541 27.5803 32.3453C27.5803 34.7709 26.0694 36.6811 21.5367 36.6811C18.3184 36.6811 16.0218 34.6496 16.0218 32.224C16.0218 29.7984 18.7264 27.7821 21.9295 27.8276C22.6322 27.8341 23.33 27.9465 23.9994 28.1611C25.7219 29.3588 27.127 30.1168 27.4745 31.4812ZM22.3525 22.0517C21.1524 21.8987 20.043 21.3305 19.2156 20.445C18.3882 19.5594 17.8946 18.412 17.8198 17.2004C17.427 14.3807 18.8623 12.228 21.0078 12.2886C23.1533 12.3492 24.9966 14.6687 25.3593 17.4885C25.7219 20.3083 24.498 22.1123 22.3525 22.0517ZM36.3285 15.0326V11.3638H34.4852V15.0326H30.8137V16.8669H34.4852V20.5508H36.3285V16.8669H40V15.0326H36.3285Z" fill="white"/>
</g>
<defs>
<clipPath id="clip0">
<rect width="27" height="27" fill="white" transform="translate(13 11)"/>
</clipPath>
</defs>
</svg>
