<svg width="46" height="46" viewBox="0 0 46 46" fill="none" xmlns="http://www.w3.org/2000/svg">
<path d="M46 23C46 35.7025 35.7025 46 23 46C10.2975 46 0 35.7025 0 23C0 10.2975 10.2975 0 23 0C35.7025 0 46 10.2975 46 23Z" fill="url(#paint0_linear)"/>
<path d="M32.75 11H13.25C11.4219 11 10 12.4219 10 14.25V33.75C10 35.5781 11.4219 37 13.25 37H32.75C34.5781 37 36 35.5781 36 33.75V14.25C36 12.4219 34.5781 11 32.75 11ZM18.0234 23.4922C18.0234 23.3906 18.0234 23.3906 18.0234 23.3906C18.0234 23.3906 18.0234 23.0859 18.125 22.9844V22.7812C18.125 22.6797 18.2266 22.5781 18.2266 22.4766L18.3281 22.2734C18.3281 22.1719 18.4297 22.0703 18.4297 21.9688V21.8672C19.6484 19.3281 22.6953 18.3125 25.2344 19.5312C26.25 20.0391 27.0625 20.8516 27.5703 21.8672V21.9688C27.5703 22.0703 27.6719 22.1719 27.6719 22.2734L27.7734 22.4766C27.7734 22.5781 27.875 22.6797 27.875 22.7812V22.9844C27.875 23.0859 27.875 23.1875 27.9766 23.3906C28.0781 23.5938 27.9766 23.4922 27.9766 23.4922C28.4844 26.2344 26.5547 28.875 23.8125 29.3828C21.0703 29.8906 18.4297 27.9609 17.9219 25.2188C17.8203 24.6094 17.8203 24.1016 18.0234 23.4922ZM33.0547 32.7344C33.0547 33.4453 32.4453 34.0547 31.7344 34.0547H14.2656C13.5547 34.0547 12.9453 33.4453 12.9453 32.7344V21.8672H15.3828C14.2656 26.1328 16.7031 30.5 20.9688 31.6172C25.2344 32.7344 29.6016 30.2969 30.7188 26.0312C31.125 24.6094 31.125 23.1875 30.7188 21.7656H33.1562V32.7344H33.0547ZM33.0547 17.8047C33.0547 18.5156 32.4453 19.125 31.7344 19.125H29.0938C28.3828 19.125 27.7734 18.5156 27.7734 17.8047V15.2656C27.7734 14.5547 28.3828 13.9453 29.0938 13.9453H31.7344C32.4453 13.9453 33.0547 14.5547 33.0547 15.2656V17.8047Z" fill="white"/>
<defs>
<linearGradient id="paint0_linear" x1="5.52" y1="67.62" x2="47.84" y2="2.3" gradientUnits="userSpaceOnUse">
<stop offset="0.317903" stop-color="#FECA69"/>
<stop offset="0.54155" stop-color="#E42E68"/>
<stop offset="1" stop-color="#893EC1"/>
</linearGradient>
</defs>
</svg>
