<svg width="46" height="46" viewBox="0 0 46 46" fill="none" xmlns="http://www.w3.org/2000/svg">
<path d="M46 23C46 35.7025 35.7025 46 23 46C10.2975 46 0 35.7025 0 23C0 10.2975 10.2975 0 23 0C35.7025 0 46 10.2975 46 23Z" fill="#3F65A6"/>
<g clip-path="url(#clip0)">
<path d="M24.3333 18.3115C24.3333 16.788 24.1 14.5615 24.5667 13.8584C25.5 12.4521 29 12.8037 29 12.8037V7.99898C23.4 7.99898 21.5333 7.76461 19.6667 9.75679C17.9167 11.5146 17.9167 14.913 17.6833 18.3115H15V22.999H17.8C17.8 27.9209 17.8 33.3115 17.8 37.999H24.3333V22.999H28.0667C28.4167 21.3584 28.65 20.1865 29 18.3115H24.3333Z" fill="white"/>
</g>
<defs>
<clipPath id="clip0">
<rect width="14" height="30" fill="white" transform="translate(15 8)"/>
</clipPath>
</defs>
</svg>
