<svg width="47" height="47" viewBox="0 0 47 47" fill="none" xmlns="http://www.w3.org/2000/svg">
<path d="M47 23.5C47 36.4787 36.4787 47 23.5 47C10.5213 47 0 36.4787 0 23.5C0 10.5213 10.5213 0 23.5 0C36.4787 0 47 10.5213 47 23.5Z" fill="#1DA1F2"/>
<path d="M37.25 16.1338C37.5 16.009 37.75 15.7592 38 15.6344C39 14.8852 39.75 13.7615 40.125 12.5129L39.375 13.0123C38.375 13.6366 37.25 14.0112 36 14.1361C34.625 12.6377 32.75 11.8886 30.75 12.0134L30 12.1383C29.5 12.2631 29 12.388 28.5 12.6377C26.625 13.3869 25.25 15.0101 24.75 17.0078C24.5 18.0067 24.5 19.1305 24.75 20.1294C23.75 20.1294 22.75 20.0045 21.75 19.7548C18.875 19.0056 16.125 17.6321 13.75 15.7592C13.125 15.2598 12.375 14.6355 11.875 13.8863C11.625 13.7615 11.375 13.5117 11.25 13.262C10.875 13.7615 10.625 14.3858 10.5 14.8852C10 17.0078 10.5 19.2553 12 20.8785C12.375 21.2531 12.875 21.5028 13.25 21.8774C13 21.8774 12.625 21.8774 12.375 21.7525C11.875 21.7525 11.375 21.6277 11 21.5028L10.25 21.1282C10.125 23.3757 11.375 25.6232 13.375 26.747C14 27.2464 14.75 27.4961 15.5 27.621C15.125 27.9956 13.25 27.8707 12.625 27.7458C13.25 29.7436 14.75 31.3668 16.75 31.9911C17.375 32.2408 18 32.3657 18.75 32.3657C18.25 32.8651 17.625 33.2397 17 33.4894C15.75 34.1137 14.5 34.6132 13 34.8629C12.375 34.9877 11.75 34.9877 11.125 35.1126C10.375 35.1126 9.75 35.1126 9 34.9877L9.625 35.3623C10.25 35.7369 10.875 35.9866 11.5 36.3612C12.75 36.8606 14 37.3601 15.375 37.6098C18.5 38.2341 21.625 38.1093 24.625 37.2352C31.5 35.1126 35.875 30.1182 37.5 22.7514C37.75 21.2531 37.75 19.8796 37.75 18.5062L38.75 17.6321C39.625 16.883 40.375 16.1338 41 15.1349C39.875 15.6344 38.625 16.009 37.25 16.1338Z" fill="white"/>
</svg>
