<svg width="47" height="47" viewBox="0 0 47 47" fill="none" xmlns="http://www.w3.org/2000/svg">
<path d="M47 23.5C47 36.4787 36.4787 47 23.5 47C10.5213 47 0 36.4787 0 23.5C0 10.5213 10.5213 0 23.5 0C36.4787 0 47 10.5213 47 23.5Z" fill="#EE1B22"/>
<g clip-path="url(#clip0)">
<path d="M34.551 16.1088C34.2143 14.7548 33.4285 13.5135 32.5306 12.3851C31.6326 11.3695 30.3979 10.4668 29.1632 9.90262C27.5918 9.22558 25.9081 8.88706 24.3367 8.9999C23.6632 8.9999 23.102 9.11274 22.4285 9.11274C20.9694 9.33842 19.3979 9.90262 18.051 10.6925C15.5816 12.1594 13.7857 14.7548 13.2245 17.5758C13 18.817 13 20.0583 13.2245 21.2995C13.4489 22.9921 14.4592 24.5719 15.9183 25.4746C16.1428 25.5874 16.3673 25.7003 16.5918 25.7003C17.153 25.7003 17.153 25.0232 17.2653 24.5719C17.3775 24.1205 17.602 23.6692 17.3775 23.2178C17.153 22.7664 17.0408 22.7664 16.8163 22.5408C16.3673 21.7509 16.1428 20.8481 16.1428 19.8326C16.1428 18.4785 16.4796 17.1244 17.0408 15.996C18.1632 13.852 20.1836 12.3851 22.5408 11.9338C24 11.7081 25.3469 11.8209 26.8061 12.1594C27.9285 12.498 28.9387 13.175 29.6122 14.0777C30.3979 15.0933 30.8469 16.3345 30.8469 17.5758C30.8469 18.3657 30.8469 19.0427 30.7347 19.8326C30.6224 21.7509 29.9489 23.5563 28.8265 25.1361C28.153 26.1516 27.0306 26.8287 25.9081 26.9415C25.2347 26.9415 24.5612 26.8287 24.1122 26.3773C23.6632 26.0388 23.3265 25.4746 23.102 24.9104C22.9898 24.2334 23.102 23.5563 23.3265 22.8793C23.6632 21.5252 24.1122 20.5096 24.3367 19.1555C24.5612 18.4785 24.5612 17.6886 24.4489 17.0116C24.4489 16.5602 24.1122 16.1088 23.551 15.7703C22.9898 15.4318 22.3163 15.4318 21.6428 15.6575C20.5204 16.1088 19.7347 17.0116 19.5102 18.2528C19.2857 18.9299 19.2857 19.7197 19.3979 20.3968C19.5102 21.0738 19.6224 21.7509 19.8469 22.3151C19.8469 22.5408 19.8469 22.6536 19.7347 22.7664C19.1734 25.1361 18.6122 27.3929 18.1632 29.7625C17.8265 31.0038 17.602 32.3579 17.602 33.712C17.4898 34.9532 17.4898 36.1945 17.602 37.4357C17.602 37.6614 17.602 37.7742 17.8265 37.7742C18.051 37.7742 17.9387 38.1127 18.5 37.3229C19.5102 36.0816 20.1836 34.8404 20.7449 33.3734C21.0816 32.4707 21.3061 31.568 21.5306 30.5524C21.7551 29.5369 21.9796 28.6341 22.204 27.6186C22.5408 28.1828 23.102 28.747 23.6632 28.9727C24.3367 29.3112 25.1224 29.5369 25.9081 29.6497C26.8061 29.6497 27.5918 29.5369 28.3775 29.3112C29.051 29.0855 29.7245 28.747 30.3979 28.4085C32.7551 26.7159 34.3265 24.0077 34.6632 21.0738C34.8877 20.1711 35 19.2684 35 18.3657C35 17.8015 34.7755 16.8987 34.551 16.1088Z" fill="white"/>
</g>
<defs>
<clipPath id="clip0">
<rect width="22" height="29" fill="white" transform="translate(13 9)"/>
</clipPath>
</defs>
</svg>
