<svg width="43" height="43" viewBox="0 0 43 43" fill="none" xmlns="http://www.w3.org/2000/svg">
<circle cx="21.5" cy="21.5" r="21.5" fill="#120C12" fill-opacity="0.54"/>
<g clip-path="url(#clip0)">
<path d="M30.7238 10.5295C26.7293 6.52392 20.244 6.51489 16.2384 10.5094C12.3734 14.3637 12.2099 20.5716 15.8665 24.6241L15.0843 25.4063C14.4523 24.7742 13.4276 24.7741 12.7955 25.4061C12.7954 25.4061 12.7954 25.4062 12.7953 25.4063L7.45463 30.747C6.82258 31.379 6.82244 32.4037 7.45442 33.0357C7.45449 33.0358 7.45456 33.0358 7.45463 33.0359L8.21743 33.7987C8.84941 34.4305 9.87385 34.4305 10.5058 33.7987L15.8465 28.458C16.4786 27.826 16.4787 26.8013 15.8467 26.1693C15.8467 26.1692 15.8466 26.1692 15.8465 26.1691L16.6287 25.3869C20.8258 29.1798 27.3028 28.8521 31.0957 24.6551C34.7594 20.6011 34.5957 14.3851 30.7238 10.5295ZM15.0843 27.6947L9.74357 33.0354C9.53291 33.246 9.19143 33.246 8.98077 33.0354L8.21797 32.272C8.00771 32.0614 8.00771 31.7204 8.21797 31.5098L13.5587 26.1691C13.772 25.9651 14.1081 25.9651 14.3215 26.1691L15.0843 26.9324C15.2945 27.143 15.2945 27.4841 15.0843 27.6947ZM29.9616 24.2621C26.3801 27.8434 20.5734 27.8434 16.992 24.2619C13.4106 20.6804 13.4107 14.8737 16.9922 11.2923C20.5736 7.71101 26.3801 7.71101 29.9616 11.2923C33.5372 14.8762 33.5372 20.6782 29.9616 24.2621Z" fill="white"/>
<path d="M29.1982 12.0542L28.4354 12.817C31.1695 15.5577 31.1695 19.9943 28.4354 22.735L29.1982 23.4978C32.3538 20.3359 32.3538 15.2161 29.1982 12.0542Z" fill="white"/>
</g>
<defs>
<clipPath id="clip0">
<rect x="6.98051" y="7.51575" width="26.7587" height="26.7587" fill="white"/>
</clipPath>
</defs>
</svg>
